<?xml version="1.0" encoding="utf-8"?>
<!-- Generator: Adobe Illustrator 25.2.0, SVG Export Plug-In . SVG Version: 6.00 Build 0)  -->
<svg version="1.1" id="Camada_1" xmlns="http://www.w3.org/2000/svg" xmlns:xlink="http://www.w3.org/1999/xlink" x="0px" y="0px"
	 viewBox="0 0 22.88 17.75" style="enable-background:new 0 0 22.88 17.75;" xml:space="preserve">
<style type="text/css">
	.st0{fill:#AA8679;}
</style>
<g>
	<g>
		<g>
			<path class="st0" d="M20.87,0H2.01C0.9,0,0,0.92,0,2.05V15.7c0,1.13,0.9,2.05,2.01,2.05h18.86c1.1,0,2.01-0.92,2.01-2.05V2.05
				C22.88,0.92,21.98,0,20.87,0z M20.6,1.37l-9.11,9.28L2.3,1.37H20.6z M1.34,15.42V2.32L7.8,8.84L1.34,15.42z M2.29,16.39
				l6.46-6.58l2.26,2.29c0.26,0.26,0.69,0.26,0.95,0l2.21-2.25l6.43,6.54H2.29z M21.54,15.42l-6.43-6.54l6.43-6.54V15.42z"/>
		</g>
	</g>
</g>
</svg>
