<?xml version="1.0" encoding="utf-8"?>
<!-- Generator: Adobe Illustrator 25.2.0, SVG Export Plug-In . SVG Version: 6.00 Build 0)  -->
<svg version="1.1" id="Capa_1" xmlns="http://www.w3.org/2000/svg" xmlns:xlink="http://www.w3.org/1999/xlink" x="0px" y="0px"
	 viewBox="0 0 44 47" style="enable-background:new 0 0 44 47;" xml:space="preserve">
<style type="text/css">
	.st0{fill:#AA8679;}
</style>
<g>
	<g>
		<g>
			<path class="st0" d="M30.97,18.29H12.11c-1.11,0-2.01,0.92-2.01,2.05v13.65c0,1.13,0.9,2.05,2.01,2.05h18.86
				c1.1,0,2.01-0.92,2.01-2.05V20.34C32.98,19.21,32.08,18.29,30.97,18.29z M30.69,19.66l-9.11,9.28l-9.19-9.28H30.69z M11.44,33.71
				v-13.1l6.46,6.52L11.44,33.71z M12.38,34.68l6.46-6.58l2.26,2.29c0.26,0.26,0.69,0.26,0.95,0l2.21-2.25l6.43,6.54H12.38z
				 M31.64,33.71l-6.43-6.54l6.43-6.54V33.71z"/>
		</g>
	</g>
</g>
</svg>
