<?xml version="1.0" encoding="utf-8"?>
<!-- Generator: Adobe Illustrator 25.2.0, SVG Export Plug-In . SVG Version: 6.00 Build 0)  -->
<svg version="1.1" id="Capa_1" xmlns="http://www.w3.org/2000/svg" xmlns:xlink="http://www.w3.org/1999/xlink" x="0px" y="0px"
	 viewBox="0 0 22.88 17.75" style="enable-background:new 0 0 22.88 17.75;" xml:space="preserve">
<style type="text/css">
	.st0{fill:#AA8679;}
</style>
<g>
	<path class="st0" d="M5.05,16.15h4.03V5.56H5.05V16.15z M5.96,6.47h2.21v8.77H5.96V6.47z"/>
	<path class="st0" d="M7.06,0.72c-1.24,0-2.25,1.01-2.25,2.25s1.01,2.25,2.25,2.25s2.25-1.01,2.25-2.25S8.31,0.72,7.06,0.72
		L7.06,0.72z M5.72,2.97c0-0.74,0.6-1.34,1.34-1.34S8.4,2.24,8.4,2.97S7.8,4.31,7.06,4.31S5.72,3.71,5.72,2.97z"/>
	<path class="st0" d="M20.36,8.89c-0.14-2.06-1.86-3.65-4-3.65c-0.95,0-1.85,0.33-2.56,0.92v-0.6H9.94v10.59h4.03v-5.79
		c0-0.65,0.53-1.18,1.18-1.18c0.65,0,1.18,0.53,1.18,1.18l0,5.79h4.03L20.36,8.89L20.36,8.89z M13.06,15.24h-2.21V6.47h2.04v1.3
		l0.73,0l0.14-0.21c0.57-0.89,1.55-1.42,2.61-1.42c1.7,0,3.05,1.29,3.09,2.95l0,6.15h-2.21l0-4.88c0-1.16-0.94-2.1-2.1-2.1
		c-1.16,0-2.1,0.94-2.1,2.1V15.24z"/>
</g>
</svg>
